<?xml version="1.0" encoding="UTF-8" standalone="no"?>
<!DOCTYPE svg PUBLIC "-//W3C//DTD SVG 1.1//EN"
 "http://www.w3.org/Graphics/SVG/1.1/DTD/svg11.dtd">
<!-- Generated by graphviz version 13.1.2 (0)
 -->
<!-- Title: G Pages: 1 -->
<svg width="1494pt" height="290pt"
 viewBox="0.00 0.00 1494.00 290.00" xmlns="http://www.w3.org/2000/svg" xmlns:xlink="http://www.w3.org/1999/xlink">
<g id="graph0" class="graph" transform="scale(1 1) rotate(0) translate(4 286.05)">
<title>G</title>
<polygon fill="white" stroke="none" points="-4,4 -4,-286.05 1490.2,-286.05 1490.2,4 -4,4"/>
<!-- src -->
<g id="node1" class="node">
<title>src</title>
<path fill="none" stroke="black" d="M80.7,-164.05C80.7,-164.05 12,-164.05 12,-164.05 6,-164.05 0,-158.05 0,-152.05 0,-152.05 0,-130 0,-130 0,-124 6,-118 12,-118 12,-118 80.7,-118 80.7,-118 86.7,-118 92.7,-124 92.7,-130 92.7,-130 92.7,-152.05 92.7,-152.05 92.7,-158.05 86.7,-164.05 80.7,-164.05"/>
<text xml:space="preserve" text-anchor="middle" x="46.35" y="-136.35" font-family="Times,serif" font-size="14.00">Source</text>
</g>
<!-- ast -->
<g id="node2" class="node">
<title>ast</title>
<path fill="none" stroke="black" d="M483.15,-164.05C483.15,-164.05 378.45,-164.05 378.45,-164.05 372.45,-164.05 366.45,-158.05 366.45,-152.05 366.45,-152.05 366.45,-130 366.45,-130 366.45,-124 372.45,-118 378.45,-118 378.45,-118 483.15,-118 483.15,-118 489.15,-118 495.15,-124 495.15,-130 495.15,-130 495.15,-152.05 495.15,-152.05 495.15,-158.05 489.15,-164.05 483.15,-164.05"/>
<text xml:space="preserve" text-anchor="middle" x="430.8" y="-136.35" font-family="Times,serif" font-size="14.00">solidity AST</text>
</g>
<!-- src&#45;&gt;ast -->
<g id="edge1" class="edge">
<title>src&#45;&gt;ast</title>
<path fill="none" stroke="black" d="M93.1,-141.03C157.92,-141.03 277.24,-141.03 355.03,-141.03"/>
<polygon fill="black" stroke="black" points="354.68,-144.53 364.68,-141.03 354.68,-137.53 354.68,-144.53"/>
<text xml:space="preserve" text-anchor="middle" x="229.57" y="-144.97" font-family="Times,serif" font-size="14.00">Parsing + semantic analysis</text>
</g>
<!-- c0 -->
<g id="node3" class="node">
<title>c0</title>
<path fill="none" stroke="black" d="M791.35,-282.05C791.35,-282.05 583.15,-282.05 583.15,-282.05 577.15,-282.05 571.15,-276.05 571.15,-270.05 571.15,-270.05 571.15,-248 571.15,-248 571.15,-242 577.15,-236 583.15,-236 583.15,-236 791.35,-236 791.35,-236 797.35,-236 803.35,-242 803.35,-248 803.35,-248 803.35,-270.05 803.35,-270.05 803.35,-276.05 797.35,-282.05 791.35,-282.05"/>
<text xml:space="preserve" text-anchor="middle" x="687.25" y="-254.35" font-family="Times,serif" font-size="14.00">Contract &lt;C0&gt; (Thread 0)</text>
</g>
<!-- ast&#45;&gt;c0 -->
<g id="edge2" class="edge">
<title>ast&#45;&gt;c0</title>
<path fill="none" stroke="black" d="M471.35,-164.35C489.34,-174.58 511.05,-186.42 531.15,-196.03 557.43,-208.58 586.89,-220.96 613.03,-231.37"/>
<polygon fill="black" stroke="black" points="611.63,-234.58 622.21,-235.01 614.2,-228.07 611.63,-234.58"/>
</g>
<!-- c1 -->
<g id="node4" class="node">
<title>c1</title>
<path fill="none" stroke="black" d="M791.35,-164.05C791.35,-164.05 583.15,-164.05 583.15,-164.05 577.15,-164.05 571.15,-158.05 571.15,-152.05 571.15,-152.05 571.15,-130 571.15,-130 571.15,-124 577.15,-118 583.15,-118 583.15,-118 791.35,-118 791.35,-118 797.35,-118 803.35,-124 803.35,-130 803.35,-130 803.35,-152.05 803.35,-152.05 803.35,-158.05 797.35,-164.05 791.35,-164.05"/>
<text xml:space="preserve" text-anchor="middle" x="687.25" y="-136.35" font-family="Times,serif" font-size="14.00">Contract &lt;C1&gt; (Thread 1)</text>
</g>
<!-- ast&#45;&gt;c1 -->
<g id="edge3" class="edge">
<title>ast&#45;&gt;c1</title>
<path fill="none" stroke="black" d="M495.35,-141.03C514.93,-141.03 537.23,-141.03 559.5,-141.03"/>
<polygon fill="black" stroke="black" points="559.26,-144.53 569.26,-141.03 559.26,-137.53 559.26,-144.53"/>
</g>
<!-- cn -->
<g id="node5" class="node">
<title>cn</title>
<path fill="none" stroke="black" d="M794.35,-46.05C794.35,-46.05 580.15,-46.05 580.15,-46.05 574.15,-46.05 568.15,-40.05 568.15,-34.05 568.15,-34.05 568.15,-12 568.15,-12 568.15,-6 574.15,0 580.15,0 580.15,0 794.35,0 794.35,0 800.35,0 806.35,-6 806.35,-12 806.35,-12 806.35,-34.05 806.35,-34.05 806.35,-40.05 800.35,-46.05 794.35,-46.05"/>
<text xml:space="preserve" text-anchor="middle" x="687.25" y="-18.35" font-family="Times,serif" font-size="14.00">Contract &lt;CN&gt; (Thread N)</text>
</g>
<!-- ast&#45;&gt;cn -->
<g id="edge4" class="edge">
<title>ast&#45;&gt;cn</title>
<path fill="none" stroke="black" d="M482.38,-117.57C523.57,-98.47 581.85,-71.44 625.56,-51.17"/>
<polygon fill="black" stroke="black" points="626.8,-54.45 634.4,-47.07 623.85,-48.1 626.8,-54.45"/>
</g>
<!-- asm0 -->
<g id="node6" class="node">
<title>asm0</title>
<path fill="none" stroke="black" d="M1120.3,-282.05C1120.3,-282.05 1032.85,-282.05 1032.85,-282.05 1026.85,-282.05 1020.85,-276.05 1020.85,-270.05 1020.85,-270.05 1020.85,-248 1020.85,-248 1020.85,-242 1026.85,-236 1032.85,-236 1032.85,-236 1120.3,-236 1120.3,-236 1126.3,-236 1132.3,-242 1132.3,-248 1132.3,-248 1132.3,-270.05 1132.3,-270.05 1132.3,-276.05 1126.3,-282.05 1120.3,-282.05"/>
<text xml:space="preserve" text-anchor="middle" x="1076.57" y="-254.35" font-family="Times,serif" font-size="14.00">Assembly</text>
</g>
<!-- c0&#45;&gt;asm0 -->
<g id="edge5" class="edge">
<title>c0&#45;&gt;asm0</title>
<path fill="none" stroke="black" d="M803.67,-259.02C870.73,-259.02 952.84,-259.02 1009.17,-259.02"/>
<polygon fill="black" stroke="black" points="1008.92,-262.53 1018.92,-259.03 1008.92,-255.53 1008.92,-262.53"/>
<text xml:space="preserve" text-anchor="middle" x="913.6" y="-262.97" font-family="Times,serif" font-size="14.00">MLIR + LLVM stack</text>
</g>
<!-- asm1 -->
<g id="node7" class="node">
<title>asm1</title>
<path fill="none" stroke="black" d="M1120.3,-164.05C1120.3,-164.05 1032.85,-164.05 1032.85,-164.05 1026.85,-164.05 1020.85,-158.05 1020.85,-152.05 1020.85,-152.05 1020.85,-130 1020.85,-130 1020.85,-124 1026.85,-118 1032.85,-118 1032.85,-118 1120.3,-118 1120.3,-118 1126.3,-118 1132.3,-124 1132.3,-130 1132.3,-130 1132.3,-152.05 1132.3,-152.05 1132.3,-158.05 1126.3,-164.05 1120.3,-164.05"/>
<text xml:space="preserve" text-anchor="middle" x="1076.57" y="-136.35" font-family="Times,serif" font-size="14.00">Assembly</text>
</g>
<!-- c1&#45;&gt;asm1 -->
<g id="edge8" class="edge">
<title>c1&#45;&gt;asm1</title>
<path fill="none" stroke="black" d="M803.67,-141.03C870.73,-141.03 952.84,-141.03 1009.17,-141.03"/>
<polygon fill="black" stroke="black" points="1008.92,-144.53 1018.92,-141.03 1008.92,-137.53 1008.92,-144.53"/>
<text xml:space="preserve" text-anchor="middle" x="913.6" y="-144.97" font-family="Times,serif" font-size="14.00">MLIR + LLVM stack</text>
</g>
<!-- asmn -->
<g id="node8" class="node">
<title>asmn</title>
<path fill="none" stroke="black" d="M1120.3,-46.05C1120.3,-46.05 1032.85,-46.05 1032.85,-46.05 1026.85,-46.05 1020.85,-40.05 1020.85,-34.05 1020.85,-34.05 1020.85,-12 1020.85,-12 1020.85,-6 1026.85,0 1032.85,0 1032.85,0 1120.3,0 1120.3,0 1126.3,0 1132.3,-6 1132.3,-12 1132.3,-12 1132.3,-34.05 1132.3,-34.05 1132.3,-40.05 1126.3,-46.05 1120.3,-46.05"/>
<text xml:space="preserve" text-anchor="middle" x="1076.57" y="-18.35" font-family="Times,serif" font-size="14.00">Assembly</text>
</g>
<!-- cn&#45;&gt;asmn -->
<g id="edge11" class="edge">
<title>cn&#45;&gt;asmn</title>
<path fill="none" stroke="black" d="M806.83,-23.02C873.28,-23.02 953.68,-23.02 1009.13,-23.02"/>
<polygon fill="black" stroke="black" points="1009.06,-26.53 1019.06,-23.03 1009.06,-19.53 1009.06,-26.53"/>
<text xml:space="preserve" text-anchor="middle" x="913.6" y="-26.97" font-family="Times,serif" font-size="14.00">MLIR + LLVM stack</text>
</g>
<!-- lld -->
<g id="node12" class="node">
<title>lld</title>
<path fill="none" stroke="black" d="M1254.5,-164.05C1254.5,-164.05 1217.3,-164.05 1217.3,-164.05 1211.3,-164.05 1205.3,-158.05 1205.3,-152.05 1205.3,-152.05 1205.3,-130 1205.3,-130 1205.3,-124 1211.3,-118 1217.3,-118 1217.3,-118 1254.5,-118 1254.5,-118 1260.5,-118 1266.5,-124 1266.5,-130 1266.5,-130 1266.5,-152.05 1266.5,-152.05 1266.5,-158.05 1260.5,-164.05 1254.5,-164.05"/>
<text xml:space="preserve" text-anchor="middle" x="1235.9" y="-136.35" font-family="Times,serif" font-size="14.00">lld</text>
</g>
<!-- asm0&#45;&gt;lld -->
<g id="edge6" class="edge">
<title>asm0&#45;&gt;lld</title>
<path fill="none" stroke="black" d="M1113.42,-235.57C1130.6,-224.03 1151.3,-209.7 1169.3,-196.03 1179.36,-188.38 1189.97,-179.75 1199.65,-171.64"/>
<polygon fill="black" stroke="black" points="1201.72,-174.47 1207.09,-165.34 1197.2,-169.13 1201.72,-174.47"/>
</g>
<!-- asm1&#45;&gt;lld -->
<g id="edge9" class="edge">
<title>asm1&#45;&gt;lld</title>
<path fill="none" stroke="black" d="M1132.6,-141.03C1152.61,-141.03 1174.87,-141.03 1193.5,-141.03"/>
<polygon fill="black" stroke="black" points="1193.36,-144.53 1203.36,-141.03 1193.36,-137.53 1193.36,-144.53"/>
</g>
<!-- asmn&#45;&gt;lld -->
<g id="edge12" class="edge">
<title>asmn&#45;&gt;lld</title>
<path fill="none" stroke="black" d="M1108.66,-46.34C1133.65,-65.08 1168.91,-91.53 1195.81,-111.71"/>
<polygon fill="black" stroke="black" points="1193.64,-114.45 1203.74,-117.65 1197.84,-108.85 1193.64,-114.45"/>
</g>
<!-- bc0 -->
<g id="node9" class="node">
<title>bc0</title>
<path fill="none" stroke="black" d="M1474.2,-282.05C1474.2,-282.05 1351.5,-282.05 1351.5,-282.05 1345.5,-282.05 1339.5,-276.05 1339.5,-270.05 1339.5,-270.05 1339.5,-248 1339.5,-248 1339.5,-242 1345.5,-236 1351.5,-236 1351.5,-236 1474.2,-236 1474.2,-236 1480.2,-236 1486.2,-242 1486.2,-248 1486.2,-248 1486.2,-270.05 1486.2,-270.05 1486.2,-276.05 1480.2,-282.05 1474.2,-282.05"/>
<text xml:space="preserve" text-anchor="middle" x="1412.85" y="-254.35" font-family="Times,serif" font-size="14.00">EVM bytecode</text>
</g>
<!-- bc1 -->
<g id="node10" class="node">
<title>bc1</title>
<path fill="none" stroke="black" d="M1474.2,-164.05C1474.2,-164.05 1351.5,-164.05 1351.5,-164.05 1345.5,-164.05 1339.5,-158.05 1339.5,-152.05 1339.5,-152.05 1339.5,-130 1339.5,-130 1339.5,-124 1345.5,-118 1351.5,-118 1351.5,-118 1474.2,-118 1474.2,-118 1480.2,-118 1486.2,-124 1486.2,-130 1486.2,-130 1486.2,-152.05 1486.2,-152.05 1486.2,-158.05 1480.2,-164.05 1474.2,-164.05"/>
<text xml:space="preserve" text-anchor="middle" x="1412.85" y="-136.35" font-family="Times,serif" font-size="14.00">EVM bytecode</text>
</g>
<!-- bcn -->
<g id="node11" class="node">
<title>bcn</title>
<path fill="none" stroke="black" d="M1474.2,-46.05C1474.2,-46.05 1351.5,-46.05 1351.5,-46.05 1345.5,-46.05 1339.5,-40.05 1339.5,-34.05 1339.5,-34.05 1339.5,-12 1339.5,-12 1339.5,-6 1345.5,0 1351.5,0 1351.5,0 1474.2,0 1474.2,0 1480.2,0 1486.2,-6 1486.2,-12 1486.2,-12 1486.2,-34.05 1486.2,-34.05 1486.2,-40.05 1480.2,-46.05 1474.2,-46.05"/>
<text xml:space="preserve" text-anchor="middle" x="1412.85" y="-18.35" font-family="Times,serif" font-size="14.00">EVM bytecode</text>
</g>
<!-- lld&#45;&gt;bc0 -->
<g id="edge7" class="edge">
<title>lld&#45;&gt;bc0</title>
<path fill="none" stroke="black" d="M1262.56,-164.33C1274.34,-174.56 1288.74,-186.4 1302.5,-196.03 1319.77,-208.1 1339.5,-220 1357.4,-230.14"/>
<polygon fill="black" stroke="black" points="1355.38,-233.02 1365.81,-234.85 1358.8,-226.91 1355.38,-233.02"/>
</g>
<!-- lld&#45;&gt;bc1 -->
<g id="edge10" class="edge">
<title>lld&#45;&gt;bc1</title>
<path fill="none" stroke="black" d="M1266.97,-141.03C1283.95,-141.03 1306.08,-141.03 1327.92,-141.03"/>
<polygon fill="black" stroke="black" points="1327.77,-144.53 1337.77,-141.03 1327.77,-137.53 1327.77,-144.53"/>
</g>
<!-- lld&#45;&gt;bcn -->
<g id="edge13" class="edge">
<title>lld&#45;&gt;bcn</title>
<path fill="none" stroke="black" d="M1266.97,-120.74C1294.69,-102.05 1336.16,-74.08 1367.64,-52.84"/>
<polygon fill="black" stroke="black" points="1369.48,-55.83 1375.81,-47.33 1365.56,-50.02 1369.48,-55.83"/>
</g>
</g>
</svg>
