<?xml version="1.0" encoding="UTF-8" standalone="no"?>
<!DOCTYPE svg PUBLIC "-//W3C//DTD SVG 1.1//EN"
 "http://www.w3.org/Graphics/SVG/1.1/DTD/svg11.dtd">
<!-- Generated by graphviz version 13.1.2 (0)
 -->
<!-- Title: G Pages: 1 -->
<svg width="1222pt" height="219pt"
 viewBox="0.00 0.00 1222.00 219.00" xmlns="http://www.w3.org/2000/svg" xmlns:xlink="http://www.w3.org/1999/xlink">
<g id="graph0" class="graph" transform="scale(1 1) rotate(0) translate(4 215.3)">
<title>G</title>
<polygon fill="white" stroke="none" points="-4,4 -4,-215.3 1218.2,-215.3 1218.2,4 -4,4"/>
<!-- ast -->
<g id="node1" class="node">
<title>ast</title>
<path fill="none" stroke="black" d="M116.7,-122.05C116.7,-122.05 12,-122.05 12,-122.05 6,-122.05 0,-116.05 0,-110.05 0,-110.05 0,-88 0,-88 0,-82 6,-76 12,-76 12,-76 116.7,-76 116.7,-76 122.7,-76 128.7,-82 128.7,-88 128.7,-88 128.7,-110.05 128.7,-110.05 128.7,-116.05 122.7,-122.05 116.7,-122.05"/>
<text xml:space="preserve" text-anchor="middle" x="64.35" y="-94.35" font-family="Times,serif" font-size="14.00">solidity AST</text>
</g>
<!-- yast -->
<g id="node2" class="node">
<title>yast</title>
<path fill="none" stroke="black" d="M407.4,-199.05C407.4,-199.05 333.45,-199.05 333.45,-199.05 327.45,-199.05 321.45,-193.05 321.45,-187.05 321.45,-187.05 321.45,-165 321.45,-165 321.45,-159 327.45,-153 333.45,-153 333.45,-153 407.4,-153 407.4,-153 413.4,-153 419.4,-159 419.4,-165 419.4,-165 419.4,-187.05 419.4,-187.05 419.4,-193.05 413.4,-199.05 407.4,-199.05"/>
<text xml:space="preserve" text-anchor="middle" x="370.42" y="-171.35" font-family="Times,serif" font-size="14.00">Yul AST</text>
</g>
<!-- ast&#45;&gt;yast -->
<g id="edge9" class="edge">
<title>ast&#45;&gt;yast</title>
<path fill="none" stroke="black" d="M129.09,-115.17C182.47,-128.68 258.07,-147.83 310.16,-161.02"/>
<polygon fill="black" stroke="black" points="309.2,-164.39 319.76,-163.45 310.92,-157.6 309.2,-164.39"/>
<text xml:space="preserve" text-anchor="middle" x="220.57" y="-155.07" font-family="Times,serif" font-size="14.00">Inline assembly</text>
</g>
<!-- sol -->
<g id="node3" class="node">
<title>sol</title>
<path fill="none" stroke="black" d="M416.4,-46.05C416.4,-46.05 324.45,-46.05 324.45,-46.05 318.45,-46.05 312.45,-40.05 312.45,-34.05 312.45,-34.05 312.45,-12 312.45,-12 312.45,-6 318.45,0 324.45,0 324.45,0 416.4,0 416.4,0 422.4,0 428.4,-6 428.4,-12 428.4,-12 428.4,-34.05 428.4,-34.05 428.4,-40.05 422.4,-46.05 416.4,-46.05"/>
<text xml:space="preserve" text-anchor="middle" x="370.42" y="-18.35" font-family="Times,serif" font-size="14.00">sol dialect</text>
</g>
<!-- ast&#45;&gt;sol -->
<g id="edge1" class="edge">
<title>ast&#45;&gt;sol</title>
<path fill="none" stroke="black" d="M129.09,-83.09C179.47,-70.5 249.64,-52.96 301.16,-40.09"/>
<polygon fill="black" stroke="black" points="301.86,-43.52 310.71,-37.7 300.16,-36.73 301.86,-43.52"/>
</g>
<!-- yul -->
<g id="node4" class="node">
<title>yul</title>
<path fill="none" stroke="black" d="M606.85,-122.05C606.85,-122.05 513.4,-122.05 513.4,-122.05 507.4,-122.05 501.4,-116.05 501.4,-110.05 501.4,-110.05 501.4,-88 501.4,-88 501.4,-82 507.4,-76 513.4,-76 513.4,-76 606.85,-76 606.85,-76 612.85,-76 618.85,-82 618.85,-88 618.85,-88 618.85,-110.05 618.85,-110.05 618.85,-116.05 612.85,-122.05 606.85,-122.05"/>
<text xml:space="preserve" text-anchor="middle" x="560.12" y="-94.35" font-family="Times,serif" font-size="14.00">yul dialect</text>
</g>
<!-- yast&#45;&gt;yul -->
<g id="edge10" class="edge">
<title>yast&#45;&gt;yul</title>
<path fill="none" stroke="black" d="M419.76,-156.2C441.62,-147.23 467.82,-136.48 491.58,-126.73"/>
<polygon fill="black" stroke="black" points="492.62,-130.09 500.54,-123.06 489.96,-123.61 492.62,-130.09"/>
</g>
<!-- sol&#45;&gt;sol -->
<g id="edge2" class="edge">
<title>sol&#45;&gt;sol</title>
<path fill="none" stroke="black" d="M358.63,-46.41C347.86,-78.61 351.79,-118.05 370.42,-118.05 387.02,-118.05 391.96,-86.76 385.23,-57.17"/>
<polygon fill="black" stroke="black" points="388.69,-56.55 382.63,-47.86 381.95,-58.44 388.69,-56.55"/>
<text xml:space="preserve" text-anchor="middle" x="370.42" y="-122" font-family="Times,serif" font-size="14.00">High level optimizations</text>
</g>
<!-- sol&#45;&gt;yul -->
<g id="edge3" class="edge">
<title>sol&#45;&gt;yul</title>
<path fill="none" stroke="black" d="M428.76,-46.24C448.32,-54.16 470.38,-63.09 490.71,-71.33"/>
<polygon fill="black" stroke="black" points="489.18,-74.48 499.77,-74.99 491.81,-67.99 489.18,-74.48"/>
</g>
<!-- std -->
<g id="node5" class="node">
<title>std</title>
<path fill="none" stroke="black" d="M805.55,-122.05C805.55,-122.05 703.85,-122.05 703.85,-122.05 697.85,-122.05 691.85,-116.05 691.85,-110.05 691.85,-110.05 691.85,-88 691.85,-88 691.85,-82 697.85,-76 703.85,-76 703.85,-76 805.55,-76 805.55,-76 811.55,-76 817.55,-82 817.55,-88 817.55,-88 817.55,-110.05 817.55,-110.05 817.55,-116.05 811.55,-122.05 805.55,-122.05"/>
<text xml:space="preserve" text-anchor="middle" x="754.7" y="-94.35" font-family="Times,serif" font-size="14.00">std dialects</text>
</g>
<!-- yul&#45;&gt;std -->
<g id="edge4" class="edge">
<title>yul&#45;&gt;std</title>
<path fill="none" stroke="black" d="M619.17,-99.03C638.33,-99.03 659.9,-99.03 680.06,-99.03"/>
<polygon fill="black" stroke="black" points="679.91,-102.53 689.91,-99.03 679.91,-95.53 679.91,-102.53"/>
</g>
<!-- std&#45;&gt;std -->
<g id="edge5" class="edge">
<title>std&#45;&gt;std</title>
<path fill="none" stroke="black" d="M742.3,-122.41C730.97,-154.61 735.1,-194.05 754.7,-194.05 772.15,-194.05 777.34,-162.76 770.26,-133.17"/>
<polygon fill="black" stroke="black" points="773.71,-132.47 767.53,-123.86 766.99,-134.44 773.71,-132.47"/>
<text xml:space="preserve" text-anchor="middle" x="754.7" y="-198" font-family="Times,serif" font-size="14.00">Upstream MLIR stack</text>
</g>
<!-- llvm -->
<g id="node6" class="node">
<title>llvm</title>
<path fill="none" stroke="black" d="M982.5,-122.05C982.5,-122.05 902.55,-122.05 902.55,-122.05 896.55,-122.05 890.55,-116.05 890.55,-110.05 890.55,-110.05 890.55,-88 890.55,-88 890.55,-82 896.55,-76 902.55,-76 902.55,-76 982.5,-76 982.5,-76 988.5,-76 994.5,-82 994.5,-88 994.5,-88 994.5,-110.05 994.5,-110.05 994.5,-116.05 988.5,-122.05 982.5,-122.05"/>
<text xml:space="preserve" text-anchor="middle" x="942.53" y="-94.35" font-family="Times,serif" font-size="14.00">LLVM IR</text>
</g>
<!-- std&#45;&gt;llvm -->
<g id="edge6" class="edge">
<title>std&#45;&gt;llvm</title>
<path fill="none" stroke="black" d="M817.84,-99.03C837.5,-99.03 859.25,-99.03 878.95,-99.03"/>
<polygon fill="black" stroke="black" points="878.76,-102.53 888.76,-99.03 878.76,-95.53 878.76,-102.53"/>
</g>
<!-- llvm&#45;&gt;llvm -->
<g id="edge7" class="edge">
<title>llvm&#45;&gt;llvm</title>
<path fill="none" stroke="black" d="M931.48,-122.41C921.39,-154.61 925.07,-194.05 942.53,-194.05 958.07,-194.05 962.69,-162.76 956.39,-133.17"/>
<polygon fill="black" stroke="black" points="959.87,-132.66 953.95,-123.87 953.1,-134.43 959.87,-132.66"/>
<text xml:space="preserve" text-anchor="middle" x="942.53" y="-198" font-family="Times,serif" font-size="14.00">LLVM stack</text>
</g>
<!-- bytecode -->
<g id="node7" class="node">
<title>bytecode</title>
<path fill="none" stroke="black" d="M1202.2,-122.05C1202.2,-122.05 1079.5,-122.05 1079.5,-122.05 1073.5,-122.05 1067.5,-116.05 1067.5,-110.05 1067.5,-110.05 1067.5,-88 1067.5,-88 1067.5,-82 1073.5,-76 1079.5,-76 1079.5,-76 1202.2,-76 1202.2,-76 1208.2,-76 1214.2,-82 1214.2,-88 1214.2,-88 1214.2,-110.05 1214.2,-110.05 1214.2,-116.05 1208.2,-122.05 1202.2,-122.05"/>
<text xml:space="preserve" text-anchor="middle" x="1140.85" y="-94.35" font-family="Times,serif" font-size="14.00">EVM bytecode</text>
</g>
<!-- llvm&#45;&gt;bytecode -->
<g id="edge8" class="edge">
<title>llvm&#45;&gt;bytecode</title>
<path fill="none" stroke="black" d="M994.85,-99.03C1013.45,-99.03 1034.97,-99.03 1055.66,-99.03"/>
<polygon fill="black" stroke="black" points="1055.52,-102.53 1065.52,-99.03 1055.52,-95.53 1055.52,-102.53"/>
</g>
</g>
</svg>
