<?xml version="1.0" encoding="UTF-8" standalone="no"?>
<!DOCTYPE svg PUBLIC "-//W3C//DTD SVG 1.1//EN"
 "http://www.w3.org/Graphics/SVG/1.1/DTD/svg11.dtd">
<!-- Generated by graphviz version 13.1.2 (0)
 -->
<!-- Title: G Pages: 1 -->
<svg width="1054pt" height="143pt"
 viewBox="0.00 0.00 1054.00 143.00" xmlns="http://www.w3.org/2000/svg" xmlns:xlink="http://www.w3.org/1999/xlink">
<g id="graph0" class="graph" transform="scale(1 1) rotate(0) translate(4 139.3)">
<title>G</title>
<polygon fill="white" stroke="none" points="-4,4 -4,-139.3 1050.45,-139.3 1050.45,4 -4,4"/>
<!-- ast -->
<g id="node1" class="node">
<title>ast</title>
<path fill="none" stroke="black" d="M59.7,-46.05C59.7,-46.05 12,-46.05 12,-46.05 6,-46.05 0,-40.05 0,-34.05 0,-34.05 0,-12 0,-12 0,-6 6,0 12,0 12,0 59.7,0 59.7,0 65.7,0 71.7,-6 71.7,-12 71.7,-12 71.7,-34.05 71.7,-34.05 71.7,-40.05 65.7,-46.05 59.7,-46.05"/>
<text xml:space="preserve" text-anchor="middle" x="35.85" y="-18.35" font-family="Times,serif" font-size="14.00">AST</text>
</g>
<!-- sol -->
<g id="node2" class="node">
<title>sol</title>
<path fill="none" stroke="black" d="M248.65,-46.05C248.65,-46.05 156.7,-46.05 156.7,-46.05 150.7,-46.05 144.7,-40.05 144.7,-34.05 144.7,-34.05 144.7,-12 144.7,-12 144.7,-6 150.7,0 156.7,0 156.7,0 248.65,0 248.65,0 254.65,0 260.65,-6 260.65,-12 260.65,-12 260.65,-34.05 260.65,-34.05 260.65,-40.05 254.65,-46.05 248.65,-46.05"/>
<text xml:space="preserve" text-anchor="middle" x="202.67" y="-18.35" font-family="Times,serif" font-size="14.00">sol dialect</text>
</g>
<!-- ast&#45;&gt;sol -->
<g id="edge1" class="edge">
<title>ast&#45;&gt;sol</title>
<path fill="none" stroke="black" d="M71.81,-23.02C89.67,-23.02 112.04,-23.02 133.16,-23.02"/>
<polygon fill="black" stroke="black" points="132.88,-26.53 142.88,-23.03 132.88,-19.53 132.88,-26.53"/>
</g>
<!-- sol&#45;&gt;sol -->
<g id="edge2" class="edge">
<title>sol&#45;&gt;sol</title>
<path fill="none" stroke="black" d="M190.88,-46.41C180.11,-78.61 184.04,-118.05 202.67,-118.05 219.27,-118.05 224.21,-86.76 217.48,-57.17"/>
<polygon fill="black" stroke="black" points="220.94,-56.55 214.88,-47.86 214.2,-58.44 220.94,-56.55"/>
<text xml:space="preserve" text-anchor="middle" x="202.67" y="-122" font-family="Times,serif" font-size="14.00">High level optimizations</text>
</g>
<!-- yul -->
<g id="node3" class="node">
<title>yul</title>
<path fill="none" stroke="black" d="M439.1,-46.05C439.1,-46.05 345.65,-46.05 345.65,-46.05 339.65,-46.05 333.65,-40.05 333.65,-34.05 333.65,-34.05 333.65,-12 333.65,-12 333.65,-6 339.65,0 345.65,0 345.65,0 439.1,0 439.1,0 445.1,0 451.1,-6 451.1,-12 451.1,-12 451.1,-34.05 451.1,-34.05 451.1,-40.05 445.1,-46.05 439.1,-46.05"/>
<text xml:space="preserve" text-anchor="middle" x="392.38" y="-18.35" font-family="Times,serif" font-size="14.00">yul dialect</text>
</g>
<!-- sol&#45;&gt;yul -->
<g id="edge3" class="edge">
<title>sol&#45;&gt;yul</title>
<path fill="none" stroke="black" d="M261.01,-23.02C280.3,-23.02 302.02,-23.02 322.12,-23.02"/>
<polygon fill="black" stroke="black" points="321.91,-26.53 331.91,-23.03 321.91,-19.53 321.91,-26.53"/>
</g>
<!-- std -->
<g id="node4" class="node">
<title>std</title>
<path fill="none" stroke="black" d="M637.8,-46.05C637.8,-46.05 536.1,-46.05 536.1,-46.05 530.1,-46.05 524.1,-40.05 524.1,-34.05 524.1,-34.05 524.1,-12 524.1,-12 524.1,-6 530.1,0 536.1,0 536.1,0 637.8,0 637.8,0 643.8,0 649.8,-6 649.8,-12 649.8,-12 649.8,-34.05 649.8,-34.05 649.8,-40.05 643.8,-46.05 637.8,-46.05"/>
<text xml:space="preserve" text-anchor="middle" x="586.95" y="-18.35" font-family="Times,serif" font-size="14.00">std dialects</text>
</g>
<!-- yul&#45;&gt;std -->
<g id="edge4" class="edge">
<title>yul&#45;&gt;std</title>
<path fill="none" stroke="black" d="M451.42,-23.02C470.58,-23.02 492.15,-23.02 512.31,-23.02"/>
<polygon fill="black" stroke="black" points="512.16,-26.53 522.16,-23.03 512.16,-19.53 512.16,-26.53"/>
</g>
<!-- std&#45;&gt;std -->
<g id="edge5" class="edge">
<title>std&#45;&gt;std</title>
<path fill="none" stroke="black" d="M574.55,-46.41C563.22,-78.61 567.35,-118.05 586.95,-118.05 604.4,-118.05 609.59,-86.76 602.51,-57.17"/>
<polygon fill="black" stroke="black" points="605.96,-56.47 599.78,-47.86 599.24,-58.44 605.96,-56.47"/>
<text xml:space="preserve" text-anchor="middle" x="586.95" y="-122" font-family="Times,serif" font-size="14.00">Upstream MLIR stack</text>
</g>
<!-- llvm -->
<g id="node5" class="node">
<title>llvm</title>
<path fill="none" stroke="black" d="M814.75,-46.05C814.75,-46.05 734.8,-46.05 734.8,-46.05 728.8,-46.05 722.8,-40.05 722.8,-34.05 722.8,-34.05 722.8,-12 722.8,-12 722.8,-6 728.8,0 734.8,0 734.8,0 814.75,0 814.75,0 820.75,0 826.75,-6 826.75,-12 826.75,-12 826.75,-34.05 826.75,-34.05 826.75,-40.05 820.75,-46.05 814.75,-46.05"/>
<text xml:space="preserve" text-anchor="middle" x="774.78" y="-18.35" font-family="Times,serif" font-size="14.00">LLVM IR</text>
</g>
<!-- std&#45;&gt;llvm -->
<g id="edge6" class="edge">
<title>std&#45;&gt;llvm</title>
<path fill="none" stroke="black" d="M650.09,-23.02C669.75,-23.02 691.5,-23.02 711.2,-23.02"/>
<polygon fill="black" stroke="black" points="711.01,-26.53 721.01,-23.03 711.01,-19.53 711.01,-26.53"/>
</g>
<!-- llvm&#45;&gt;llvm -->
<g id="edge7" class="edge">
<title>llvm&#45;&gt;llvm</title>
<path fill="none" stroke="black" d="M763.73,-46.41C753.64,-78.61 757.32,-118.05 774.78,-118.05 790.32,-118.05 794.94,-86.76 788.64,-57.17"/>
<polygon fill="black" stroke="black" points="792.12,-56.66 786.2,-47.87 785.35,-58.43 792.12,-56.66"/>
<text xml:space="preserve" text-anchor="middle" x="774.78" y="-122" font-family="Times,serif" font-size="14.00">LLVM stack</text>
</g>
<!-- bytecode -->
<g id="node6" class="node">
<title>bytecode</title>
<path fill="none" stroke="black" d="M1034.45,-46.05C1034.45,-46.05 911.75,-46.05 911.75,-46.05 905.75,-46.05 899.75,-40.05 899.75,-34.05 899.75,-34.05 899.75,-12 899.75,-12 899.75,-6 905.75,0 911.75,0 911.75,0 1034.45,0 1034.45,0 1040.45,0 1046.45,-6 1046.45,-12 1046.45,-12 1046.45,-34.05 1046.45,-34.05 1046.45,-40.05 1040.45,-46.05 1034.45,-46.05"/>
<text xml:space="preserve" text-anchor="middle" x="973.1" y="-18.35" font-family="Times,serif" font-size="14.00">EVM bytecode</text>
</g>
<!-- llvm&#45;&gt;bytecode -->
<g id="edge8" class="edge">
<title>llvm&#45;&gt;bytecode</title>
<path fill="none" stroke="black" d="M827.1,-23.02C845.7,-23.02 867.22,-23.02 887.91,-23.02"/>
<polygon fill="black" stroke="black" points="887.77,-26.53 897.77,-23.03 887.77,-19.53 887.77,-26.53"/>
</g>
</g>
</svg>
